<svg xmlns="http://www.w3.org/2000/svg" viewBox="0 0 100 100">
  <!-- Fondo circular -->
  <circle cx="50" cy="50" r="48" fill="#006632"/>
  
  <!-- Continentes (estilizados) -->
  <path d="M50 15c-8 2-15 8-18 16 2 4 6 6 10 5 5-1 8-5 8-10 0-4-2-8-6-10 2 0 4-1 6-1z" fill="#4ade80"/>
  <path d="M65 20c-6 0-11 4-13 10 3 3 7 4 11 3 4-1 7-5 7-9-2-2-4-4-5-4z" fill="#4ade80"/>
  <path d="M25 40c-5 3-8 9-8 15 0 6 3 11 8 14 4-3 6-8 5-13-1-5-5-9-10-10 2-2 4-4 5-6z" fill="#4ade80"/>
  <path d="M70 45c-4 1-7 5-7 9 0 5 3 9 8 10 4-2 7-6 8-11-3-3-6-6-9-8z" fill="#4ade80"/>
  <path d="M45 65c-6 2-10 7-12 13 5 3 11 3 16 0 4-3 6-8 5-13-3-1-6-1-9 0z" fill="#4ade80"/>
  <path d="M75 60c-3 0-6 2-8 5 2 4 5 7 10 8 3-2 5-6 5-10-2-2-4-3-7-3z" fill="#4ade80"/>
  
  <!-- Brillo sutil -->
  <ellipse cx="35" cy="35" rx="12" ry="8" fill="white" opacity="0.15"/>
</svg>